<svg width="92" height="27" viewBox="0 0 92 27" fill="none" xmlns="http://www.w3.org/2000/svg">
<path d="M0.800781 14.1044V10.3544L15.8008 3.74929V8.06392L5.5309 12.1868L5.66939 11.9631V12.4957L5.5309 12.272L15.8008 16.3949V20.7095L0.800781 14.1044ZM19.7924 23V1.18182H28.4004C30.0481 1.18182 31.4543 1.47656 32.6191 2.06605C33.791 2.64844 34.6823 3.47585 35.2931 4.5483C35.911 5.61364 36.22 6.86719 36.22 8.30895C36.22 9.75781 35.9075 11.0043 35.2825 12.0483C34.6575 13.0852 33.7519 13.8807 32.5658 14.4347C31.3869 14.9886 29.9593 15.2656 28.2832 15.2656H22.5197V11.5582H27.5374C28.4181 11.5582 29.1496 11.4375 29.732 11.196C30.3144 10.9545 30.7477 10.5923 31.0317 10.1094C31.3229 9.62642 31.4685 9.02628 31.4685 8.30895C31.4685 7.58452 31.3229 6.97372 31.0317 6.47656C30.7477 5.9794 30.3109 5.60298 29.7214 5.3473C29.139 5.08452 28.4039 4.95312 27.5161 4.95312H24.4053V23H19.7924ZM31.5751 13.071L36.9977 23H31.9053L26.5999 13.071H31.5751ZM38.8799 23V1.18182H47.4879C49.1356 1.18182 50.5418 1.47656 51.7066 2.06605C52.8785 2.64844 53.7698 3.47585 54.3806 4.5483C54.9985 5.61364 55.3075 6.86719 55.3075 8.30895C55.3075 9.75781 54.995 11.0043 54.37 12.0483C53.745 13.0852 52.8394 13.8807 51.6533 14.4347C50.4744 14.9886 49.0468 15.2656 47.3707 15.2656H41.6072V11.5582H46.6249C47.5056 11.5582 48.2371 11.4375 48.8195 11.196C49.4019 10.9545 49.8352 10.5923 50.1192 10.1094C50.4104 9.62642 50.556 9.02628 50.556 8.30895C50.556 7.58452 50.4104 6.97372 50.1192 6.47656C49.8352 5.9794 49.3984 5.60298 48.8089 5.3473C48.2265 5.08452 47.4914 4.95312 46.6036 4.95312H43.4928V23H38.8799ZM50.6626 13.071L56.0852 23H50.9928L45.6874 13.071H50.6626ZM73.7284 0.159089L66.6971 26.2812H62.7873L69.8186 0.159089H73.7284ZM91.1992 16.1499L76.1992 22.755V18.4403L86.4691 14.3175L86.3306 14.5412V14.0085L86.4691 14.2322L76.1992 10.1094V5.79474L91.1992 12.3999V16.1499Z" fill="#111827"/>
</svg>
